<?xml version="1.0" encoding="UTF-8"?>
<!DOCTYPE svg PUBLIC "-//W3C//DTD SVG 1.1//EN" "http://www.w3.org/Graphics/SVG/1.1/DTD/svg11.dtd">
<!-- Creator: CorelDRAW 2018 (64-Bit) -->
<svg xmlns="http://www.w3.org/2000/svg" xml:space="preserve" width="5.1594mm" height="5.2916mm" version="1.1" style="shape-rendering:geometricPrecision; text-rendering:geometricPrecision; image-rendering:optimizeQuality; fill-rule:evenodd; clip-rule:evenodd"
viewBox="0 0 3.68 3.77"
 xmlns:xlink="http://www.w3.org/1999/xlink">
 <defs>
  <style type="text/css">
   <![CDATA[
    .fil0 {fill:black}
   ]]>
  </style>
 </defs>
 <g id="Слой_x0020_1">
  <metadata id="CorelCorpID_0Corel-Layer"/>
  <g id="_1669560323296">
   <g id="Iconly_x002f_Light-Outline_x002f_Bag-2">
    <g id="Bag-2">
     <path id="Combined-Shape" class="fil0" d="M1.84 0c0.47,0 0.85,0.38 0.85,0.84l0.04 0c0.52,0 0.94,0.42 0.94,0.94l0 1.04c0,0.52 -0.42,0.94 -0.94,0.94l-1.79 0c-0.52,0 -0.94,-0.42 -0.94,-0.94l0 -1.04c0,-0.52 0.42,-0.94 0.94,-0.94l0.04 -0 0 -0.04c0.01,-0.21 0.1,-0.41 0.25,-0.56 0.16,-0.16 0.38,-0.24 0.6,-0.25zm0.89 1.13l-0.04 -0 0 0.3c0,0.08 -0.06,0.14 -0.14,0.14 -0.08,0 -0.14,-0.06 -0.14,-0.14l-0 -0.3 -1.14 0 0 0.3c0,0.08 -0.06,0.14 -0.14,0.14 -0.08,0 -0.14,-0.06 -0.14,-0.14l0 -0.3 -0.04 0c-0.36,0 -0.66,0.3 -0.66,0.66l0 1.04c0,0.36 0.3,0.66 0.66,0.66l1.79 0c0.36,0 0.66,-0.3 0.66,-0.66l0 -1.04c0,-0.36 -0.3,-0.66 -0.66,-0.66zm-0.89 -0.84c-0.15,0.01 -0.3,0.06 -0.4,0.17 -0.11,0.11 -0.17,0.25 -0.17,0.4l1.14 0 -0 -0.02c-0.02,-0.3 -0.27,-0.54 -0.57,-0.54z"/>
    </g>
   </g>
  </g>
 </g>
</svg>
