<?xml version="1.0" encoding="UTF-8"?>
<!DOCTYPE svg PUBLIC "-//W3C//DTD SVG 1.1//EN" "http://www.w3.org/Graphics/SVG/1.1/DTD/svg11.dtd">
<!-- Creator: CorelDRAW 2018 (64-Bit) -->
<svg xmlns="http://www.w3.org/2000/svg" xml:space="preserve" width="4.0548mm" height="8.7849mm" version="1.1" style="shape-rendering:geometricPrecision; text-rendering:geometricPrecision; image-rendering:optimizeQuality; fill-rule:evenodd; clip-rule:evenodd"
viewBox="0 0 1.18 2.57"
 xmlns:xlink="http://www.w3.org/1999/xlink">
 <defs>
  <style type="text/css">
   <![CDATA[
    .fil0 {fill:#302C2C;fill-rule:nonzero}
   ]]>
  </style>
 </defs>
 <g id="Слой_x0020_1">
  <metadata id="CorelCorpID_0Corel-Layer"/>
  <path class="fil0" d="M0.27 2.57l0.52 0 0 -1.29 0.36 0 0.04 -0.43 -0.4 0c0,0 0,-0.16 0,-0.25 0,-0.1 0.02,-0.14 0.12,-0.14 0.08,0 0.28,0 0.28,0l0 -0.45c0,0 -0.29,0 -0.36,0 -0.38,0 -0.56,0.17 -0.56,0.49 0,0.28 0,0.35 0,0.35l-0.27 0 0 0.44 0.27 0 0 1.29z"/>
 </g>
</svg>
