<?xml version="1.0" encoding="UTF-8"?>
<!DOCTYPE svg PUBLIC "-//W3C//DTD SVG 1.1//EN" "http://www.w3.org/Graphics/SVG/1.1/DTD/svg11.dtd">
<!-- Creator: CorelDRAW 2018 (64-Bit) -->
<svg xmlns="http://www.w3.org/2000/svg" xml:space="preserve" width="5.4168mm" height="5.1596mm" version="1.1" style="shape-rendering:geometricPrecision; text-rendering:geometricPrecision; image-rendering:optimizeQuality; fill-rule:evenodd; clip-rule:evenodd"
viewBox="0 0 9.46 9.01"
 xmlns:xlink="http://www.w3.org/1999/xlink">
 <defs>
  <style type="text/css">
   <![CDATA[
    .fil0 {fill:black}
   ]]>
  </style>
 </defs>
 <g id="Слой_x0020_1">
  <metadata id="CorelCorpID_0Corel-Layer"/>
  <g id="_1669432694096">
   <g id="Iconly_x002f_Light-Outline_x002f_Heart">
    <g id="Heart">
     <path id="Combined-Shape" class="fil0" d="M4.73 0.48c0.75,-0.48 1.75,-0.61 2.61,-0.33 1.88,0.6 2.46,2.65 1.94,4.28 -0.8,2.56 -4.24,4.46 -4.38,4.54 -0.05,0.03 -0.11,0.04 -0.17,0.04 -0.06,0 -0.11,-0.01 -0.17,-0.04 -0.14,-0.08 -3.55,-1.96 -4.38,-4.54 -0,0 -0,-0 -0,-0 -0.52,-1.63 0.06,-3.67 1.93,-4.28 0.88,-0.28 1.84,-0.16 2.61,0.33zm-2.4 0.33c-1.52,0.49 -1.9,2.12 -1.49,3.41 0.65,2.02 3.21,3.65 3.89,4.05 0.68,-0.41 3.26,-2.06 3.89,-4.05 0.41,-1.29 0.03,-2.92 -1.49,-3.41 -0.74,-0.24 -1.59,-0.09 -2.19,0.37 -0.12,0.1 -0.3,0.1 -0.42,0 -0.63,-0.47 -1.45,-0.61 -2.19,-0.37zm4.36 0.92c0.63,0.2 1.07,0.76 1.13,1.42 0.02,0.19 -0.13,0.36 -0.32,0.37 -0.01,0 -0.02,0 -0.03,0 -0.18,0 -0.33,-0.14 -0.35,-0.32 -0.03,-0.38 -0.28,-0.7 -0.65,-0.82 -0.18,-0.06 -0.28,-0.25 -0.22,-0.44 0.06,-0.18 0.25,-0.28 0.44,-0.22z" fill="blue"/>
    </g>
   </g>
  </g>
 </g>
</svg>
