<?xml version="1.0" encoding="UTF-8"?>
<!DOCTYPE svg PUBLIC "-//W3C//DTD SVG 1.1//EN" "http://www.w3.org/Graphics/SVG/1.1/DTD/svg11.dtd">
<!-- Creator: CorelDRAW 2018 (64-Bit) -->
<svg xmlns="http://www.w3.org/2000/svg" xml:space="preserve" width="7.969mm" height="7.9688mm" version="1.1" style="shape-rendering:geometricPrecision; text-rendering:geometricPrecision; image-rendering:optimizeQuality; fill-rule:evenodd; clip-rule:evenodd"
viewBox="0 0 4.68 4.68"
 xmlns:xlink="http://www.w3.org/1999/xlink">
 <defs>
  <style type="text/css">
   <![CDATA[
    .fil0 {fill:#302C2C;fill-rule:nonzero}
   ]]>
  </style>
 </defs>
 <g id="Слой_x0020_1">
  <metadata id="CorelCorpID_0Corel-Layer"/>
  <path class="fil0" d="M2.34 0c-0.63,0 -0.71,0 -0.96,0.01 -0.25,0.01 -0.42,0.05 -0.57,0.11 -0.15,0.06 -0.28,0.14 -0.41,0.27 -0.13,0.13 -0.21,0.26 -0.27,0.41 -0.06,0.15 -0.1,0.32 -0.11,0.57 -0.01,0.25 -0.01,0.33 -0.01,0.96 0,0.64 0,0.71 0.01,0.96 0.01,0.25 0.05,0.42 0.11,0.57 0.06,0.15 0.14,0.28 0.27,0.41 0.13,0.13 0.26,0.21 0.41,0.27 0.15,0.06 0.32,0.1 0.57,0.11 0.25,0.01 0.33,0.01 0.96,0.01 0.63,0 0.71,-0 0.96,-0.01 0.25,-0.01 0.42,-0.05 0.57,-0.11 0.15,-0.06 0.28,-0.14 0.41,-0.27 0.13,-0.13 0.21,-0.26 0.27,-0.41 0.06,-0.15 0.1,-0.32 0.11,-0.57 0.01,-0.25 0.01,-0.33 0.01,-0.96 0,-0.63 -0,-0.71 -0.01,-0.96 -0.01,-0.25 -0.05,-0.42 -0.11,-0.57 -0.06,-0.15 -0.14,-0.28 -0.27,-0.41 -0.13,-0.13 -0.26,-0.21 -0.41,-0.27 -0.15,-0.06 -0.32,-0.1 -0.57,-0.11 -0.25,-0.01 -0.33,-0.01 -0.96,-0.01zm1.53 1.09c0,0.15 -0.13,0.28 -0.28,0.28 -0.15,0 -0.28,-0.13 -0.28,-0.28 0,-0.15 0.13,-0.28 0.28,-0.28 0.15,0 0.28,0.13 0.28,0.28zm-1.53 2.03c-0.43,0 -0.78,-0.35 -0.78,-0.78 0,-0.43 0.35,-0.78 0.78,-0.78 0.43,0 0.78,0.35 0.78,0.78 0,0.43 -0.35,0.78 -0.78,0.78zm0 -1.98c-0.66,0 -1.2,0.54 -1.2,1.2 0,0.66 0.54,1.2 1.2,1.2 0.66,0 1.2,-0.54 1.2,-1.2 0,-0.66 -0.54,-1.2 -1.2,-1.2zm0 -0.72c0.62,0 0.7,0 0.94,0.01 0.23,0.01 0.35,0.05 0.43,0.08 0.11,0.04 0.19,0.09 0.27,0.17 0.08,0.08 0.13,0.16 0.17,0.27 0.03,0.08 0.07,0.21 0.08,0.43 0.01,0.25 0.01,0.32 0.01,0.94 0,0.62 -0,0.7 -0.01,0.94 -0.01,0.23 -0.05,0.35 -0.08,0.43 -0.04,0.11 -0.09,0.19 -0.17,0.27 -0.08,0.08 -0.16,0.13 -0.27,0.17 -0.08,0.03 -0.21,0.07 -0.43,0.08 -0.25,0.01 -0.32,0.01 -0.94,0.01 -0.62,0 -0.7,-0 -0.94,-0.01 -0.23,-0.01 -0.35,-0.05 -0.43,-0.08 -0.11,-0.04 -0.19,-0.09 -0.27,-0.17 -0.08,-0.08 -0.13,-0.16 -0.17,-0.27 -0.03,-0.08 -0.07,-0.21 -0.08,-0.43 -0.01,-0.25 -0.01,-0.32 -0.01,-0.94 0,-0.62 0,-0.7 0.01,-0.94 0.01,-0.23 0.05,-0.35 0.08,-0.43 0.04,-0.11 0.09,-0.19 0.17,-0.27 0.08,-0.08 0.16,-0.13 0.27,-0.17 0.08,-0.03 0.21,-0.07 0.43,-0.08 0.25,-0.01 0.32,-0.01 0.94,-0.01z"/>
 </g>
</svg>
