<?xml version="1.0" encoding="UTF-8"?>
<!DOCTYPE svg PUBLIC "-//W3C//DTD SVG 1.1//EN" "http://www.w3.org/Graphics/SVG/1.1/DTD/svg11.dtd">
<!-- Creator: CorelDRAW 2018 (64-Bit) -->
<svg xmlns="http://www.w3.org/2000/svg" xml:space="preserve" width="4.191mm" height="5.2574mm" version="1.1" style="shape-rendering:geometricPrecision; text-rendering:geometricPrecision; image-rendering:optimizeQuality; fill-rule:evenodd; clip-rule:evenodd"
viewBox="0 0 1.16 1.46"
 xmlns:xlink="http://www.w3.org/1999/xlink">
 <defs>
  <style type="text/css">
   <![CDATA[
    .fil0 {fill:black}
   ]]>
  </style>
 </defs>
 <g id="Слой_x0020_1">
  <metadata id="CorelCorpID_0Corel-Layer"/>
  <g id="_1669573601200">
   <g id="Iconly_x002f_Light-Outline_x002f_Profile">
    <g id="Profile">
     <path id="Combined-Shape" class="fil0" d="M1.16 1.19c0,0.24 -0.33,0.27 -0.58,0.27l-0.02 -0c-0.16,-0 -0.56,-0.01 -0.56,-0.27 0,-0.24 0.32,-0.27 0.57,-0.27l0.03 -0c0.16,0 0.56,0.01 0.56,0.27zm-0.58 -0.16c-0.31,0 -0.47,0.05 -0.47,0.16 0,0.11 0.16,0.16 0.47,0.16 0.31,0 0.47,-0.05 0.47,-0.16 0,-0.11 -0.16,-0.16 -0.47,-0.16zm0 -1.03c0.22,0 0.39,0.17 0.39,0.39 0,0.22 -0.17,0.39 -0.39,0.39l-0 0c-0.21,-0 -0.39,-0.18 -0.39,-0.39 0,-0.21 0.17,-0.39 0.39,-0.39zm0 0.1c-0.16,0 -0.29,0.13 -0.29,0.29 -0,0.16 0.13,0.28 0.28,0.29l0 0.05 0 -0.05c0.16,0 0.29,-0.13 0.29,-0.29 0,-0.16 -0.13,-0.29 -0.29,-0.29z"/>
    </g>
   </g>
  </g>
 </g>
</svg>
