<?xml version="1.0" encoding="UTF-8"?>
<!DOCTYPE svg PUBLIC "-//W3C//DTD SVG 1.1//EN" "http://www.w3.org/Graphics/SVG/1.1/DTD/svg11.dtd">
<!-- Creator: CorelDRAW 2018 (64-Bit) -->
<svg xmlns="http://www.w3.org/2000/svg" xml:space="preserve" width="5.528mm" height="5.424mm" version="1.1" style="shape-rendering:geometricPrecision; text-rendering:geometricPrecision; image-rendering:optimizeQuality; fill-rule:evenodd; clip-rule:evenodd"
viewBox="0 0 4.83 4.74"
 xmlns:xlink="http://www.w3.org/1999/xlink">
 <defs>
  <style type="text/css">
   <![CDATA[
    .fil0 {fill:black}
   ]]>
  </style>
 </defs>
 <g id="Слой_x0020_1">
  <metadata id="CorelCorpID_0Corel-Layer"/>
  <g id="Iconly_x002f_Light-Outline_x002f_Calling">
   <g id="Calling">
    <path id="Combined-Shape" class="fil0" d="M1.08 0c0.26,0 0.44,0.2 0.67,0.44 0.06,0.06 0.12,0.13 0.19,0.2 0.34,0.34 0.24,0.61 0.16,0.83 -0.08,0.24 -0.16,0.45 0.28,0.88 0.44,0.44 0.64,0.36 0.88,0.28 0.22,-0.08 0.5,-0.17 0.83,0.16 0.07,0.07 0.13,0.13 0.19,0.19 0.25,0.23 0.44,0.42 0.44,0.68 0,0.22 -0.13,0.45 -0.46,0.78l-0.15 -0.1 0.12 0.12c-0.07,0.08 -0.27,0.28 -0.65,0.28l-0.01 0c-0.58,0 -1.33,-0.46 -2.23,-1.36 -0.91,-0.91 -1.37,-1.66 -1.36,-2.24 0,-0.38 0.2,-0.58 0.28,-0.65l0.01 -0.01 0 0 0.02 -0.02 0 0c0.33,-0.33 0.56,-0.47 0.78,-0.46zm-0 0.35l-0 0c-0.1,0 -0.26,0.1 -0.48,0.32l-0.04 0.04 0 -0c0,0 -0,0 -0.01,0.01l-0.02 0.02 0 0c-0.06,0.05 -0.17,0.17 -0.17,0.4 -0,0.33 0.22,0.94 1.26,1.99 1.04,1.04 1.65,1.26 1.99,1.26l0 0c0.24,-0 0.35,-0.12 0.4,-0.17 0.02,-0.02 0.03,-0.03 0.04,-0.04 0.23,-0.23 0.35,-0.4 0.35,-0.51 -0,-0.11 -0.14,-0.25 -0.34,-0.43 -0.06,-0.06 -0.13,-0.12 -0.2,-0.19 -0.18,-0.18 -0.27,-0.15 -0.47,-0.08 -0.28,0.1 -0.65,0.23 -1.24,-0.36 -0.59,-0.59 -0.46,-0.97 -0.36,-1.24 0.07,-0.2 0.1,-0.29 -0.08,-0.47 -0.07,-0.07 -0.14,-0.14 -0.2,-0.2 -0.18,-0.19 -0.32,-0.33 -0.43,-0.33zm1.99 0.48c0.48,0.09 0.85,0.46 0.95,0.95 0.02,0.09 -0.04,0.19 -0.14,0.2 -0.01,0 -0.02,0 -0.03,0 -0.08,0 -0.15,-0.06 -0.17,-0.14 -0.07,-0.34 -0.33,-0.61 -0.67,-0.67 -0.09,-0.02 -0.16,-0.11 -0.14,-0.2 0.02,-0.09 0.11,-0.16 0.2,-0.14zm-0.01 -0.82c0.94,0.1 1.67,0.84 1.78,1.78 0.01,0.1 -0.06,0.18 -0.15,0.19 -0.01,0 -0.01,0 -0.02,0 -0.09,0 -0.16,-0.07 -0.17,-0.15 -0.09,-0.78 -0.69,-1.39 -1.47,-1.47 -0.09,-0.01 -0.16,-0.1 -0.15,-0.19 0.01,-0.09 0.1,-0.16 0.19,-0.15z"/>
   </g>
  </g>
 </g>
</svg>
