<?xml version="1.0" encoding="UTF-8"?>
<!DOCTYPE svg PUBLIC "-//W3C//DTD SVG 1.1//EN" "http://www.w3.org/Graphics/SVG/1.1/DTD/svg11.dtd">
<!-- Creator: CorelDRAW 2018 (64-Bit) -->
<svg xmlns="http://www.w3.org/2000/svg" xml:space="preserve" width="5.6884mm" height="5.6884mm" version="1.1" style="shape-rendering:geometricPrecision; text-rendering:geometricPrecision; image-rendering:optimizeQuality; fill-rule:evenodd; clip-rule:evenodd"
viewBox="0 0 4.21 4.21"
 xmlns:xlink="http://www.w3.org/1999/xlink">
 <defs>
  <style type="text/css">
   <![CDATA[
    .fil0 {fill:black}
   ]]>
  </style>
 </defs>
 <g id="Слой_x0020_1">
  <metadata id="CorelCorpID_0Corel-Layer"/>
  <g id="_1670037282768">
   <g id="Iconly_x002f_Light-Outline_x002f_Chart">
    <g id="Chart">
     <path id="Combined-Shape" class="fil0" d="M3.02 0c0.71,0 1.19,0.5 1.19,1.24l0 1.73c0,0.74 -0.48,1.24 -1.19,1.24l-1.83 0c-0.71,0 -1.19,-0.5 -1.19,-1.24l0 -1.73c0,-0.74 0.48,-1.24 1.19,-1.24l1.83 0zm0 0.29l-1.83 0c-0.54,0 -0.89,0.37 -0.89,0.95l0 1.73c0,0.58 0.35,0.95 0.89,0.95l1.83 0c0.54,0 0.89,-0.37 0.89,-0.95l0 -1.73c0,-0.58 -0.35,-0.95 -0.89,-0.95zm-1.82 1.31c0.08,0 0.15,0.07 0.15,0.15l0 1.34c0,0.08 -0.07,0.15 -0.15,0.15 -0.08,0 -0.15,-0.07 -0.15,-0.15l0 -1.34c0,-0.08 0.07,-0.15 0.15,-0.15zm0.91 -0.64c0.08,0 0.15,0.07 0.15,0.15l0 1.99c0,0.08 -0.07,0.15 -0.15,0.15 -0.08,0 -0.15,-0.07 -0.15,-0.15l0 -1.99c0,-0.08 0.07,-0.15 0.15,-0.15zm0.9 1.35c0.08,0 0.15,0.07 0.15,0.15l0 0.63c0,0.08 -0.07,0.15 -0.15,0.15 -0.08,0 -0.15,-0.07 -0.15,-0.15l0 -0.63c0,-0.08 0.07,-0.15 0.15,-0.15z"/>
    </g>
   </g>
  </g>
 </g>
</svg>
