<?xml version="1.0" encoding="UTF-8"?>
<!DOCTYPE svg PUBLIC "-//W3C//DTD SVG 1.1//EN" "http://www.w3.org/Graphics/SVG/1.1/DTD/svg11.dtd">
<!-- Creator: CorelDRAW 2018 (64-Bit) -->
<svg xmlns="http://www.w3.org/2000/svg" xml:space="preserve" width="7.7438mm" height="6.2927mm" version="1.1" style="shape-rendering:geometricPrecision; text-rendering:geometricPrecision; image-rendering:optimizeQuality; fill-rule:evenodd; clip-rule:evenodd"
viewBox="0 0 4.27 3.47"
 xmlns:xlink="http://www.w3.org/1999/xlink">
 <defs>
  <style type="text/css">
   <![CDATA[
    .fil0 {fill:#302C2C;fill-rule:nonzero}
   ]]>
  </style>
 </defs>
 <g id="Слой_x0020_1">
  <metadata id="CorelCorpID_0Corel-Layer"/>
  <path class="fil0" d="M-0 3.08c0.39,0.25 0.85,0.39 1.34,0.39 1.63,0 2.55,-1.37 2.49,-2.61 0.17,-0.12 0.32,-0.28 0.44,-0.45 -0.16,0.07 -0.33,0.12 -0.5,0.14 0.18,-0.11 0.32,-0.28 0.38,-0.48 -0.17,0.1 -0.36,0.17 -0.56,0.21 -0.16,-0.17 -0.39,-0.28 -0.64,-0.28 -0.57,0 -0.98,0.53 -0.85,1.08 -0.73,-0.04 -1.37,-0.39 -1.81,-0.92 -0.23,0.39 -0.12,0.91 0.27,1.17 -0.14,-0 -0.28,-0.04 -0.4,-0.11 -0.01,0.41 0.28,0.79 0.7,0.87 -0.12,0.03 -0.26,0.04 -0.4,0.01 0.11,0.35 0.43,0.6 0.82,0.61 -0.37,0.29 -0.83,0.42 -1.3,0.36z"/>
 </g>
</svg>
