<?xml version="1.0" encoding="UTF-8"?>
<!DOCTYPE svg PUBLIC "-//W3C//DTD SVG 1.1//EN" "http://www.w3.org/Graphics/SVG/1.1/DTD/svg11.dtd">
<!-- Creator: CorelDRAW 2018 (64-Bit) -->
<svg xmlns="http://www.w3.org/2000/svg" xml:space="preserve" width="9.089mm" height="6.4036mm" version="1.1" style="shape-rendering:geometricPrecision; text-rendering:geometricPrecision; image-rendering:optimizeQuality; fill-rule:evenodd; clip-rule:evenodd"
viewBox="0 0 5.83 4.1"
 xmlns:xlink="http://www.w3.org/1999/xlink">
 <defs>
  <style type="text/css">
   <![CDATA[
    .fil0 {fill:#302C2C;fill-rule:nonzero}
   ]]>
  </style>
 </defs>
 <g id="Слой_x0020_1">
  <metadata id="CorelCorpID_0Corel-Layer"/>
  <path class="fil0" d="M2.32 2.92l0 -1.73 1.52 0.87 -1.52 0.87zm3.39 -2.28c-0.07,-0.25 -0.26,-0.45 -0.51,-0.52 -0.45,-0.12 -2.28,-0.12 -2.28,-0.12 0,0 -1.82,0 -2.28,0.12 -0.25,0.07 -0.45,0.27 -0.52,0.52 -0.12,0.46 -0.12,1.41 -0.12,1.41 0,0 0,0.95 0.12,1.41 0.07,0.25 0.26,0.45 0.52,0.52 0.45,0.12 2.28,0.12 2.28,0.12 0,0 1.82,0 2.28,-0.12 0.25,-0.07 0.45,-0.27 0.51,-0.52 0.12,-0.46 0.12,-1.41 0.12,-1.41 0,0 0,-0.95 -0.12,-1.41z"/>
 </g>
</svg>
