<?xml version="1.0" encoding="UTF-8"?>
<!DOCTYPE svg PUBLIC "-//W3C//DTD SVG 1.1//EN" "http://www.w3.org/Graphics/SVG/1.1/DTD/svg11.dtd">
<!-- Creator: CorelDRAW 2018 (64-Bit) -->
<svg xmlns="http://www.w3.org/2000/svg" xml:space="preserve" width="10.7561mm" height="6.2228mm" version="1.1" style="shape-rendering:geometricPrecision; text-rendering:geometricPrecision; image-rendering:optimizeQuality; fill-rule:evenodd; clip-rule:evenodd"
viewBox="0 0 7.96 4.6"
 xmlns:xlink="http://www.w3.org/1999/xlink">
 <defs>
  <style type="text/css">
   <![CDATA[
    .fil0 {fill:#302C2C}
   ]]>
  </style>
 </defs>
 <g id="Слой_x0020_1">
  <metadata id="CorelCorpID_0Corel-Layer"/>
  <path class="fil0" d="M3.04 1.23c0,0.2 0.02,0.71 -0.09,0.87l-0.01 0.02c-0,0 -0.01,0.01 -0.01,0.01 -0,0 -0.01,0 -0.01,0.01 -0.19,-0.1 -0.3,-0.28 -0.42,-0.46l-0.29 -0.47 -0.4 -0.83c-0.11,-0.16 -0.24,-0.22 -0.46,-0.22 -0.22,0 -0.96,-0.03 -1.14,0.02 -0.34,0.1 -0.18,0.44 -0.08,0.65 0.03,0.06 0.05,0.11 0.08,0.17 0.03,0.07 0.06,0.11 0.09,0.18 0.11,0.29 0.29,0.56 0.43,0.83l0.09 0.16c0.07,0.11 0.12,0.21 0.19,0.32 0.03,0.05 0.06,0.1 0.09,0.16 0.04,0.06 0.07,0.1 0.11,0.16l0.37 0.52c0.16,0.21 0.35,0.41 0.55,0.58 0.03,0.02 0.04,0.04 0.06,0.06 0.51,0.4 1.09,0.65 1.78,0.65 0.32,0 0.74,0.04 0.78,-0.37 0.02,-0.2 0.02,-0.37 0.11,-0.54 0.07,-0.14 0.15,-0.12 0.26,-0.04l0.56 0.58c0.06,0.08 0.15,0.16 0.25,0.22 0.13,0.08 0.29,0.16 0.45,0.16l1.26 0c0.2,0 0.34,-0.19 0.34,-0.37 0,-0.23 -0.29,-0.61 -0.47,-0.79l-0.46 -0.46c-0.15,-0.14 -0.44,-0.32 -0.28,-0.55l0.27 -0.37c0.06,-0.09 0.12,-0.16 0.18,-0.24 0.18,-0.24 0.37,-0.48 0.53,-0.73 0.08,-0.13 0.22,-0.38 0.24,-0.59l0 -0.08c-0.01,-0.05 -0.02,-0.09 -0.05,-0.13 -0.11,-0.13 -0.3,-0.14 -0.48,-0.14l-1.12 0c-0.2,0 -0.33,0.08 -0.4,0.24 -0.02,0.03 -0.02,0.05 -0.03,0.08l-0.49 1c-0.05,0.1 -0.16,0.23 -0.22,0.32l-0.1 0.12c-0.02,0.02 -0.04,0.03 -0.05,0.06 -0.05,0.06 -0.09,0.12 -0.17,0.16 -0.15,-0.08 -0.12,-0.37 -0.12,-0.53 0,-0.26 0.03,-1.11 -0.02,-1.3 -0.05,-0.18 -0.19,-0.29 -0.38,-0.29l-1.29 0c-0.07,0 -0.16,0.02 -0.21,0.05 -0.14,0.08 -0.41,0.35 -0.13,0.45 0.14,0.05 0.26,0.06 0.31,0.24 0.03,0.12 0.05,0.34 0.05,0.49z"/>
 </g>
</svg>
